<svg id="Capa_1" enable-background="new 0 0 512 512" height="512" viewBox="0 0 512 512" width="512" xmlns="http://www.w3.org/2000/svg" xmlns:xlink="http://www.w3.org/1999/xlink"><linearGradient id="SVGID_1_" gradientUnits="userSpaceOnUse" x1="256" x2="256" y1="512" y2="0"><stop offset="0" stop-color="#addcff"/><stop offset=".5028" stop-color="#eaf6ff"/><stop offset="1" stop-color="#eaf6ff"/></linearGradient><linearGradient id="SVGID_2_" gradientUnits="userSpaceOnUse" x1="388.335" x2="153.751" y1="138.358" y2="372.942"><stop offset="0" stop-color="#5558ff"/><stop offset="1" stop-color="#00c0ff"/></linearGradient><g><circle cx="256" cy="256" fill="url(#SVGID_1_)" r="256"/><g><g><path d="m221.818 135.24c16.821-16.838 46.049-16.838 62.87 0 3.475 3.476 9.106 3.476 12.581 0 3.475-3.467 3.475-9.105 0-12.581-23.529-23.546-64.504-23.546-88.032 0-3.475 3.476-3.475 9.114 0 12.581 3.476 3.476 9.106 3.476 12.581 0zm12.555 12.573c-3.467 3.476-3.467 9.114.017 12.581 3.493 3.467 9.123 3.484 12.581-.017 3.336-3.354 9.227-3.354 12.564 0 3.442 3.458 9.071 3.509 12.581.017 3.484-3.467 3.484-9.105.017-12.581-10.061-10.096-27.698-10.096-37.76 0zm156.324-5.213c-.773-3.284-3.336-5.839-6.621-6.612-21.33-5.005-44.32 2.589-58.43 19.037l-50.793 55.763-120.084-51.088c-2.693-1.147-5.787-.886-8.254.678-2.476 1.564-4.014 4.257-4.118 7.185-.573 15.605 8.298 30.28 22.095 37.109l77.163 44.546-69.135 78.492-28.186-12.711c-3.371-1.538-7.333-.799-9.948 1.816l-12.086 12.084c-2.024 2.024-2.945 4.892-2.494 7.715.46 2.824 2.25 5.257 4.805 6.534l39.29 19.645 19.645 39.29c2.722 5.443 9.989 6.594 14.249 2.311l12.085-12.085c2.616-2.615 3.337-6.577 1.816-9.949l-12.711-28.186 78.492-69.134 44.546 77.163c6.742 13.624 20.349 22.095 37.091 22.095h.104c2.911-.13 5.569-1.686 7.125-4.153 1.547-2.467 1.798-5.535.652-8.219l-51.089-120.086 55.702-50.741c16.891-14.483 24.216-36.9 19.089-58.499zm-199.089 104.41 3.891-3.892s-44.259-25.427-46.302-26.825c-5.006 10-3.663 22.379 4.659 30.716 10.42 10.419 27.343 10.409 37.752.001zm91.983 84.169-3.906 3.907c-10.409 10.409-10.409 27.343 0 37.76 7.307 7.282 18.747 10.658 30.755 4.619-1.61-2.321-3.08-4.771-4.368-7.374z" fill="url(#SVGID_2_)"/></g></g></g></svg>